<svg width="52" height="22" viewBox="0 0 52 22" fill="none" xmlns="http://www.w3.org/2000/svg">
<path d="M5.76788 21.3361C7.75588 21.3361 9.18388 20.5801 10.2199 19.4321V21.0001H15.4839V12.2921C15.4839 10.1641 15.0079 8.59606 13.8599 7.47606C12.6559 6.27206 10.8079 5.62806 8.09188 5.62806C5.48787 5.62806 3.66788 6.10406 1.95988 6.80406L3.05188 10.5561C4.39587 10.0241 5.62788 9.71606 7.22388 9.71606C9.26788 9.71606 10.2479 10.6121 10.2479 12.1801V12.4321C9.37988 12.1241 8.00788 11.8441 6.60788 11.8441C3.05188 11.8441 0.671875 13.4681 0.671875 16.6041V16.6601C0.671875 19.6841 2.88388 21.3361 5.76788 21.3361ZM7.67188 18.0041C6.57988 18.0041 5.79588 17.3881 5.79588 16.3521V16.2961C5.79588 15.1761 6.69188 14.4201 8.23188 14.4201C9.01588 14.4201 9.77188 14.5881 10.3039 14.8121V15.5121C10.3039 17.0241 9.21188 18.0041 7.67188 18.0041Z" fill="white"/>
<path d="M28.1296 21.3361C31.7136 21.3361 34.8216 18.3401 34.8216 13.4121V13.3561C34.8216 8.51206 31.7136 5.51606 28.1016 5.51606C25.8336 5.51606 24.5456 6.60806 23.5096 7.86806V0.560059H18.1896V21.0001H23.5096V19.1521C24.4896 20.3001 25.8336 21.3361 28.1296 21.3361ZM26.4776 16.8841C24.7696 16.8841 23.3976 15.4561 23.3976 13.4401V13.3841C23.3976 11.3961 24.7696 9.96806 26.4776 9.96806C28.2136 9.96806 29.5856 11.3961 29.5856 13.3841V13.4401C29.5856 15.4841 28.2136 16.8841 26.4776 16.8841Z" fill="white"/>
<path d="M44.4195 21.3641C47.7515 21.3641 49.7675 19.9641 51.1675 17.8921L47.6115 15.3161C46.7715 16.2961 45.9595 16.8841 44.6995 16.8841C42.9075 16.8841 41.6755 15.4001 41.6755 13.4401V13.3841C41.6755 11.5361 42.9355 10.0241 44.6435 10.0241C45.9315 10.0241 46.7435 10.6121 47.4715 11.6201L51.0835 8.93206C49.7955 6.88806 47.7235 5.54406 44.6155 5.54406C39.8275 5.54406 36.4955 9.15606 36.4955 13.4401V13.4961C36.4955 17.7801 39.8555 21.3641 44.4195 21.3641Z" fill="white"/>
</svg>
